<svg width="100" height="100" viewBox="0 0 100 100" fill="none" xmlns="http://www.w3.org/2000/svg">
<circle cx="50" cy="50" r="46" stroke="white" stroke-width="8"/>
<path d="M29.9764 76.0319C29.1657 77.1495 29.4144 78.7128 30.5319 79.5236C31.6495 80.3343 33.2128 80.0856 34.0236 78.9681L29.9764 76.0319ZM50.5 52L52.5236 53.4681C52.8332 53.0412 53 52.5274 53 52H50.5ZM53 16.5C53 15.1193 51.8807 14 50.5 14C49.1193 14 48 15.1193 48 16.5H53ZM34.0236 78.9681L52.5236 53.4681L48.4764 50.5319L29.9764 76.0319L34.0236 78.9681ZM53 52V16.5H48V52H53Z" fill="white"/>
</svg>
