<svg width="121" height="117" viewBox="0 0 121 117" fill="none" xmlns="http://www.w3.org/2000/svg">
<mask id="path-1-inside-1" fill="white">
<path fill-rule="evenodd" clip-rule="evenodd" d="M63.4999 115C95.2563 115 121 89.2564 121 57.5C121 25.7436 95.2563 0 63.4999 0C31.7435 0 5.99992 25.7436 5.99992 57.5C5.99992 65.9861 7.83825 74.0428 11.1384 81.2936L0.190758 116.013C0.0750112 116.38 0.400049 116.735 0.775826 116.652L37.1065 108.598C45.0108 112.689 53.9855 115 63.4999 115Z"/>
</mask>
<path d="M11.1384 81.2936L15.907 82.7972L16.4837 80.968L15.6892 79.2224L11.1384 81.2936ZM0.190758 116.013L-4.57781 114.51L-4.57781 114.51L0.190758 116.013ZM0.775826 116.652L-0.306303 111.77L-0.30634 111.77L0.775826 116.652ZM37.1065 108.598L39.4048 104.158L37.7946 103.324L36.0244 103.717L37.1065 108.598ZM116 57.5C116 86.4949 92.4949 110 63.4999 110V120C98.0177 120 126 92.0178 126 57.5H116ZM63.4999 5C92.4949 5 116 28.5051 116 57.5H126C126 22.9822 98.0177 -5 63.4999 -5V5ZM10.9999 57.5C10.9999 28.5051 34.505 5 63.4999 5V-5C28.9821 -5 0.999923 22.9822 0.999923 57.5H10.9999ZM15.6892 79.2224C12.6792 72.6089 10.9999 65.2573 10.9999 57.5H0.999923C0.999923 66.7148 2.99733 75.4767 6.58757 83.3649L15.6892 79.2224ZM4.95932 117.517L15.907 82.7972L6.36982 79.79L-4.57781 114.51L4.95932 117.517ZM-0.30634 111.77C3.07577 111.021 6.00101 114.213 4.95933 117.517L-4.57781 114.51C-5.85098 118.548 -2.27567 122.45 1.85799 121.533L-0.30634 111.77ZM36.0244 103.717L-0.306303 111.77L1.85796 121.533L38.1887 113.48L36.0244 103.717ZM63.4999 110C54.804 110 46.6156 107.89 39.4048 104.158L34.8083 113.039C43.4061 117.489 53.1671 120 63.4999 120V110Z" fill="white" mask="url(#path-1-inside-1)"/>
</svg>
