<svg width="844" height="844" viewBox="0 0 844 844" fill="none" xmlns="http://www.w3.org/2000/svg">
<circle cx="422" cy="422" r="422" fill="#1E4674"/>
<path d="M168.991 589.687C164.372 589.749 161.419 584.788 163.674 580.758L233.878 455.305C236.133 451.274 241.906 451.197 244.269 455.165L317.813 578.69C320.176 582.658 317.356 587.697 312.738 587.759L168.991 589.687Z" fill="white"/>
<circle cx="352" cy="405" r="185" fill="white"/>
<g filter="url(#filter0_d)">
<path d="M427.717 552.726C432.503 562.064 428.839 573.615 419.059 577.418C395.862 586.441 371.018 590.713 346.01 589.903C314.655 588.887 284.073 579.914 257.139 563.828C230.205 547.742 207.804 525.07 192.043 497.945C176.282 470.82 167.677 440.132 167.038 408.767C166.4 377.401 173.748 346.388 188.392 318.644C203.036 290.9 224.495 267.335 250.751 250.166C277.008 232.996 307.199 222.786 338.488 220.494C363.441 218.667 388.439 221.924 411.984 229.995C421.911 233.397 426.042 244.788 421.64 254.314L407.165 285.635C402.762 295.16 391.487 299.141 381.357 296.402C369.168 293.107 356.466 291.876 343.783 292.805C324.757 294.198 306.398 300.407 290.432 310.847C274.466 321.288 261.417 335.617 252.512 352.488C243.607 369.359 239.139 388.218 239.528 407.29C239.916 426.363 245.148 445.024 254.733 461.518C264.317 478.013 277.938 491.799 294.316 501.581C310.694 511.363 329.291 516.819 348.358 517.437C361.068 517.848 373.709 516.101 385.753 512.313C395.763 509.164 407.192 512.682 411.978 522.02L427.717 552.726Z" fill="#4581C7"/>
</g>
<g filter="url(#filter1_d)">
<path d="M471.824 419.52C481.328 419.52 487.904 422.448 491.552 428.304C495.2 434.064 497.024 442.08 497.024 452.352V489.216C497.024 491.712 496.208 493.824 494.576 495.552C492.944 497.184 490.88 498 488.384 498C485.888 498 483.824 497.184 482.192 495.552C480.56 493.824 479.744 491.712 479.744 489.216V452.352C479.744 447.072 478.688 442.944 476.576 439.968C474.56 436.896 470.96 435.36 465.776 435.36C460.4 435.36 456.176 436.992 453.104 440.256C450.128 443.424 448.64 447.456 448.64 452.352V489.216C448.64 491.712 447.824 493.824 446.192 495.552C444.56 497.184 442.496 498 440 498C437.504 498 435.44 497.184 433.808 495.552C432.176 493.824 431.36 491.712 431.36 489.216V400.224C431.36 397.728 432.176 395.664 433.808 394.032C435.44 392.304 437.504 391.44 440 391.44C442.496 391.44 444.56 392.304 446.192 394.032C447.824 395.664 448.64 397.728 448.64 400.224V432.048C451.232 428.592 454.496 425.664 458.432 423.264C462.464 420.768 466.928 419.52 471.824 419.52ZM578.087 419.52C580.583 419.52 582.647 420.336 584.279 421.968C585.911 423.6 586.727 425.712 586.727 428.304V489.216C586.727 491.712 585.911 493.824 584.279 495.552C582.647 497.184 580.583 498 578.087 498C575.591 498 573.527 497.184 571.895 495.552C570.359 493.92 569.543 491.856 569.447 489.36C567.047 492.144 563.783 494.544 559.655 496.56C555.623 498.48 551.351 499.44 546.839 499.44C540.215 499.44 534.215 497.76 528.839 494.4C523.463 490.944 519.191 486.192 516.023 480.144C512.951 474.096 511.415 467.232 511.415 459.552C511.415 451.872 512.951 445.008 516.023 438.96C519.095 432.816 523.271 428.064 528.551 424.704C533.927 421.248 539.831 419.52 546.263 419.52C550.871 419.52 555.191 420.384 559.223 422.112C563.255 423.744 566.663 425.856 569.447 428.448V428.304C569.447 425.808 570.263 423.744 571.895 422.112C573.527 420.384 575.591 419.52 578.087 419.52ZM548.999 483.6C555.239 483.6 560.327 481.344 564.263 476.832C568.199 472.224 570.167 466.464 570.167 459.552C570.167 452.64 568.199 446.88 564.263 442.272C560.327 437.664 555.239 435.36 548.999 435.36C542.855 435.36 537.815 437.664 533.879 442.272C529.943 446.88 527.975 452.64 527.975 459.552C527.975 466.464 529.895 472.224 533.735 476.832C537.671 481.344 542.759 483.6 548.999 483.6ZM642.606 481.728C643.95 481.728 645.15 482.4 646.206 483.744C647.358 484.992 647.934 486.672 647.934 488.784C647.934 491.376 646.494 493.584 643.614 495.408C640.83 497.136 637.662 498 634.11 498C628.158 498 623.118 496.752 618.99 494.256C614.958 491.664 612.942 486.24 612.942 477.984V438.24H606.318C604.014 438.24 602.094 437.472 600.558 435.936C599.022 434.4 598.254 432.48 598.254 430.176C598.254 427.968 599.022 426.144 600.558 424.704C602.094 423.168 604.014 422.4 606.318 422.4H612.942V413.184C612.942 410.688 613.758 408.624 615.39 406.992C617.118 405.264 619.23 404.4 621.726 404.4C624.126 404.4 626.142 405.264 627.774 406.992C629.406 408.624 630.222 410.688 630.222 413.184V422.4H640.446C642.75 422.4 644.67 423.168 646.206 424.704C647.742 426.24 648.51 428.16 648.51 430.464C648.51 432.672 647.742 434.544 646.206 436.08C644.67 437.52 642.75 438.24 640.446 438.24H630.222V477.264C630.222 479.28 630.75 480.768 631.806 481.728C632.862 482.592 634.302 483.024 636.126 483.024C636.894 483.024 637.95 482.832 639.294 482.448C640.446 481.968 641.55 481.728 642.606 481.728ZM683.096 489.216C683.096 491.712 682.232 493.824 680.504 495.552C678.872 497.184 676.808 498 674.312 498C671.912 498 669.896 497.184 668.264 495.552C666.632 493.824 665.816 491.712 665.816 489.216V400.224C665.816 397.728 666.632 395.664 668.264 394.032C669.992 392.304 672.104 391.44 674.6 391.44C677 391.44 679.016 392.304 680.648 394.032C682.28 395.664 683.096 397.728 683.096 400.224V489.216ZM758.247 420.96C760.743 420.96 762.807 421.824 764.439 423.552C766.071 425.184 766.887 427.248 766.887 429.744V490.944C766.887 503.424 763.527 512.496 756.807 518.16C750.087 523.92 741.111 526.8 729.879 526.8C726.615 526.8 723.255 526.512 719.799 525.936C716.439 525.456 713.703 524.784 711.591 523.92C706.887 521.904 704.535 519.12 704.535 515.568C704.535 514.896 704.679 514.128 704.967 513.264C705.543 511.152 706.503 509.52 707.847 508.368C709.287 507.312 710.823 506.784 712.455 506.784C713.415 506.784 714.327 506.928 715.191 507.216C715.863 507.504 717.015 507.984 718.647 508.656C720.375 509.328 722.151 509.856 723.975 510.24C725.895 510.72 727.863 510.96 729.879 510.96C736.695 510.96 741.687 509.472 744.855 506.496C748.119 503.616 749.751 498.624 749.751 491.52V490.08C744.759 496.32 736.983 499.44 726.423 499.44C721.431 499.44 717.015 498.288 713.175 495.984C709.335 493.584 706.359 490.32 704.247 486.192C702.135 481.968 701.079 477.168 701.079 471.792V429.744C701.079 427.248 701.895 425.184 703.527 423.552C705.159 421.824 707.223 420.96 709.719 420.96C712.215 420.96 714.279 421.824 715.911 423.552C717.543 425.184 718.359 427.248 718.359 429.744V466.608C718.359 472.656 719.655 477.024 722.247 479.712C724.935 482.304 728.823 483.6 733.911 483.6C738.903 483.6 742.743 482.16 745.431 479.28C748.215 476.304 749.607 472.08 749.607 466.608V429.744C749.607 427.248 750.423 425.184 752.055 423.552C753.687 421.824 755.751 420.96 758.247 420.96Z" fill="#F74C4C"/>
</g>
<circle cx="346" cy="410" r="56" fill="#4581C7"/>
<circle cx="422.5" cy="338.5" r="32.5" fill="#4581C7"/>
<circle cx="487.5" cy="322.5" r="16.5" fill="#4581C7"/>
<defs>
<filter id="filter0_d" x="167" y="217" width="271.806" height="378" filterUnits="userSpaceOnUse" color-interpolation-filters="sRGB">
<feFlood flood-opacity="0" result="BackgroundImageFix"/>
<feColorMatrix in="SourceAlpha" type="matrix" values="0 0 0 0 0 0 0 0 0 0 0 0 0 0 0 0 0 0 127 0" result="hardAlpha"/>
<feOffset dx="5" dy="1"/>
<feGaussianBlur stdDeviation="2"/>
<feComposite in2="hardAlpha" operator="out"/>
<feColorMatrix type="matrix" values="0 0 0 0 0 0 0 0 0 0 0 0 0 0 0 0 0 0 0.59 0"/>
<feBlend mode="normal" in2="BackgroundImageFix" result="effect1_dropShadow"/>
<feBlend mode="normal" in="SourceGraphic" in2="effect1_dropShadow" result="shape"/>
</filter>
<filter id="filter1_d" x="427.36" y="391.44" width="343.527" height="143.36" filterUnits="userSpaceOnUse" color-interpolation-filters="sRGB">
<feFlood flood-opacity="0" result="BackgroundImageFix"/>
<feColorMatrix in="SourceAlpha" type="matrix" values="0 0 0 0 0 0 0 0 0 0 0 0 0 0 0 0 0 0 127 0" result="hardAlpha"/>
<feOffset dy="4"/>
<feGaussianBlur stdDeviation="2"/>
<feComposite in2="hardAlpha" operator="out"/>
<feColorMatrix type="matrix" values="0 0 0 0 0 0 0 0 0 0 0 0 0 0 0 0 0 0 0.3 0"/>
<feBlend mode="normal" in2="BackgroundImageFix" result="effect1_dropShadow"/>
<feBlend mode="normal" in="SourceGraphic" in2="effect1_dropShadow" result="shape"/>
</filter>
</defs>
</svg>
