<svg width="109" height="127" viewBox="0 0 109 127" fill="none" xmlns="http://www.w3.org/2000/svg">
<circle cx="54.5" cy="32.5" r="30" stroke="white" stroke-width="5"/>
<path d="M2.57876 123.639C2.90115 117.788 4.21061 112.027 6.45827 106.6C9.07151 100.292 12.9018 94.5591 17.7305 89.7304C22.5591 84.9018 28.2915 81.0715 34.6005 78.4583C40.9094 75.845 47.6713 74.5 54.5 74.5C61.3287 74.5 68.0906 75.845 74.3995 78.4583C80.7085 81.0715 86.4409 84.9018 91.2696 89.7304C96.0982 94.5591 99.9285 100.292 102.542 106.6C104.789 112.027 106.099 117.788 106.421 123.639C106.426 123.725 106.4 123.799 106.331 123.868C106.258 123.943 106.144 124 106 124L54.5 124L3 124C2.85617 124 2.74223 123.943 2.66856 123.868C2.60024 123.799 2.57401 123.725 2.57876 123.639Z" stroke="white" stroke-width="5"/>
</svg>
